HIERARCHY
ROOT hip
{
  OFFSET 0 0 0
  CHANNELS 6 Xposition Yposition Zposition Zrotation Yrotation Xrotation
  JOINT abdomen
  {
    OFFSET 0 20.6881 -0.73152
    CHANNELS 3 Zrotation Xrotation Yrotation
    JOINT chest
    {
      OFFSET 0 11.7043 -0.48768
      CHANNELS 3 Zrotation Xrotation Yrotation
      JOINT neck
      {
        OFFSET 0 22.1894 -2.19456
        CHANNELS 3 Zrotation Xrotation Yrotation
        JOINT head
        {
          OFFSET -0.24384 7.07133 1.2192
          CHANNELS 3 Zrotation Xrotation Yrotation
          JOINT leftEye
          {
            OFFSET 4.14528 8.04674 8.04672
            CHANNELS 3 Zrotation Xrotation Yrotation
            End Site
            {
              OFFSET 1 0 0
            }
          }
          JOINT rightEye
          {
            OFFSET -3.6576 8.04674 8.04672
            CHANNELS 3 Zrotation Xrotation Yrotation
            End Site
            {
              OFFSET 1 0 0
            }
          }
        }
      }
      JOINT rCollar
      {
        OFFSET -2.68224 19.2634 -4.8768
        CHANNELS 3 Zrotation Xrotation Yrotation
        JOINT rShldr
        {
          OFFSET -8.77824 -1.95073 1.46304
          CHANNELS 3 Zrotation Xrotation Yrotation
          JOINT rForeArm
          {
            OFFSET -28.1742 -1.7115 0.48768
            CHANNELS 3 Zrotation Xrotation Yrotation
            JOINT rHand
            {
              OFFSET -22.5879 0.773209 7.07136
              CHANNELS 3 Zrotation Xrotation Yrotation
              JOINT rThumb1
              {
                OFFSET -1.2192 -0.487915 3.41376
                CHANNELS 3 Zrotation Xrotation Yrotation
                JOINT rThumb2
                {
                  OFFSET -3.37035 -0.52449 3.41376
                  CHANNELS 3 Zrotation Xrotation Yrotation
                  End Site
                  {
                    OFFSET -1.78271 -1.18214 1.43049
                  }
                }
              }
              JOINT rIndex1
              {
                OFFSET -7.75947 0.938293 5.60832
                CHANNELS 3 Zrotation Xrotation Yrotation
                JOINT rIndex2
                {
                  OFFSET -2.54057 -0.884171 1.56538
                  CHANNELS 3 Zrotation Xrotation Yrotation
                  End Site
                  {
                    OFFSET -1.62519 -0.234802 1.16502
                  }
                }
              }
              JOINT rMid1
              {
                OFFSET -8.24714 1.18213 3.41376
                CHANNELS 3 Zrotation Xrotation Yrotation
                JOINT rMid2
                {
                  OFFSET -3.10165 -0.590103 1.0647
                  CHANNELS 3 Zrotation Xrotation Yrotation
                  End Site
                  {
                    OFFSET -2.48547 -0.328903 0.83742
                  }
                }
              }
              JOINT rRing1
              {
                OFFSET -8.82822 0.546677 1.51678
                CHANNELS 3 Zrotation Xrotation Yrotation
                JOINT rRing2
                {
                  OFFSET -2.60934 -0.819778 -0.0198488
                  CHANNELS 3 Zrotation Xrotation Yrotation
                  End Site
                  {
                    OFFSET -2.33842 -0.294052 0.168128
                  }
                }
              }
              JOINT rPinky1
              {
                OFFSET -8.27202 -0.0477905 -0.4584
                CHANNELS 3 Zrotation Xrotation Yrotation
                JOINT rPinky2
                {
                  OFFSET -1.82734 -0.647385 -0.700984
                  CHANNELS 3 Zrotation Xrotation Yrotation
                  End Site
                  {
                    OFFSET -1.69225 -0.51767 -0.607171
                  }
                }
              }
            }
          }
        }
      }
      JOINT lCollar
      {
        OFFSET 2.68224 19.2634 -4.8768
        CHANNELS 3 Zrotation Xrotation Yrotation
        JOINT lShldr
        {
          OFFSET 8.77824 -1.95073 1.46304
          CHANNELS 3 Zrotation Xrotation Yrotation
          JOINT lForeArm
          {
            OFFSET 28.1742 -1.7115 0.48768
            CHANNELS 3 Zrotation Xrotation Yrotation
            JOINT lHand
            {
              OFFSET 22.5879 0.773209 7.07136
              CHANNELS 3 Zrotation Xrotation Yrotation
              JOINT lThumb1
              {
                OFFSET 1.2192 -0.487915 3.41376
                CHANNELS 3 Zrotation Xrotation Yrotation
                JOINT lThumb2
                {
                  OFFSET 3.37035 -0.52449 3.41376
                  CHANNELS 3 Zrotation Xrotation Yrotation
                  End Site
                  {
                    OFFSET 1.78271 -1.18214 1.43049
                  }
                }
              }
              JOINT lIndex1
              {
                OFFSET 7.75947 0.938293 5.60832
                CHANNELS 3 Zrotation Xrotation Yrotation
                JOINT lIndex2
                {
                  OFFSET 2.54057 -0.884171 1.56538
                  CHANNELS 3 Zrotation Xrotation Yrotation
                  End Site
                  {
                    OFFSET 1.62519 -0.234802 1.16502
                  }
                }
              }
              JOINT lMid1
              {
                OFFSET 8.24714 1.18213 3.41376
                CHANNELS 3 Zrotation Xrotation Yrotation
                JOINT lMid2
                {
                  OFFSET 3.10165 -0.590103 1.0647
                  CHANNELS 3 Zrotation Xrotation Yrotation
                  End Site
                  {
                    OFFSET 2.48547 -0.328903 0.83742
                  }
                }
              }
              JOINT lRing1
              {
                OFFSET 8.82822 0.546677 1.51678
                CHANNELS 3 Zrotation Xrotation Yrotation
                JOINT lRing2
                {
                  OFFSET 2.60934 -0.819778 -0.0198488
                  CHANNELS 3 Zrotation Xrotation Yrotation
                  End Site
                  {
                    OFFSET 2.33842 -0.294052 0.168128
                  }
                }
              }
              JOINT lPinky1
              {
                OFFSET 8.27202 -0.0477905 -0.4584
                CHANNELS 3 Zrotation Xrotation Yrotation
                JOINT lPinky2
                {
                  OFFSET 1.82734 -0.647385 -0.700984
                  CHANNELS 3 Zrotation Xrotation Yrotation
                  End Site
                  {
                    OFFSET 1.69225 -0.51767 -0.607171
                  }
                }
              }
            }
          }
        }
      }
    }
  }
  JOINT rButtock
  {
    OFFSET -8.77824 4.35084 1.2192
    CHANNELS 3 Zrotation Xrotation Yrotation
    JOINT rThigh
    {
      OFFSET 0 -1.70687 -2.19456
      CHANNELS 3 Zrotation Xrotation Yrotation
      JOINT rShin
      {
        OFFSET 0 -36.8199 0.73152
        CHANNELS 3 Zrotation Xrotation Yrotation
        JOINT rFoot
        {
          OFFSET 0.73152 -45.1104 -5.12064
          CHANNELS 3 Zrotation Xrotation Yrotation
          End Site
          {
            OFFSET -1.1221 -3.69964 12.103
          }
        }
      }
    }
  }
  JOINT lButtock
  {
    OFFSET 8.77824 4.35084 1.2192
    CHANNELS 3 Zrotation Xrotation Yrotation
    JOINT lThigh
    {
      OFFSET 0 -1.70687 -2.19456
      CHANNELS 3 Zrotation Xrotation Yrotation
      JOINT lShin
      {
        OFFSET 0 -36.8199 0.73152
        CHANNELS 3 Zrotation Xrotation Yrotation
        JOINT lFoot
        {
          OFFSET -0.73152 -45.1104 -5.12064
          CHANNELS 3 Zrotation Xrotation Yrotation
          End Site
          {
            OFFSET 1.1221 -3.69964 12.103
          }
        }
      }
    }
  }
}
MOTION
Frames:	7
Frame Time:	0.00833333
-3.94737 84.2564 39.1613 0.0 0.0 0.0 -1.24151 -0.00398119 -0.0340789 -0.342494 -0.00249263 -0.0593272 -3.83852e-14 0.0 9.93922e-17 -1.15503e-13 3.18055e-15 2.9973e-16 -0.0 0.0 0.0 -0.0 0.0 0.0 -1.95329e-14 -5.28022e-17 9.93923e-17 -4.00881e-13 -9.69075e-16 5.96354e-16 -6.95776e-12 2.0445e-12 6.99722e-14 -7.96566e-11 -2.28871e-12 6.04305e-14 -1.87893e-10 -5.30951e-13 3.21236e-13 -3.24486e-10 -9.22361e-13 5.42285e-13 -1.87885e-10 -5.26779e-13 3.11694e-13 7.73091 5.47488 0.417314 -1.87891e-10 -5.29861e-13 3.08514e-13 2.90554 0.965183 0.102902 -1.87876e-10 -5.30159e-13 3.08514e-13 10.2786 0.731801 0.0259123 -1.87889e-10 -5.33538e-13 3.11694e-13 2.22167 -0.733487 -0.20892 -1.94302e-14 -5.51317e-17 0.0 -4.08016e-13 -9.81499e-16 -1.59028e-15 -6.96437e-12 -2.12223e-12 6.99722e-14 -7.96792e-11 1.86691e-12 5.725e-14 -1.87948e-10 -5.55896e-13 2.8943e-13 -3.24568e-10 -9.63708e-13 5.20816e-13 -1.87952e-10 -5.52224e-13 3.02153e-13 -7.73091 5.47488 -0.417314 -1.87949e-10 -5.55206e-13 2.95792e-13 -2.90554 0.965183 -0.102902 -1.87955e-10 -5.55703e-13 2.97382e-13 -10.2786 0.731801 -0.0259123 -1.87947e-10 -5.55404e-13 2.95792e-13 -2.22167 -0.733487 0.20892 -2.03217e-16 0.0 -3.88251e-19 -0.45382 -1.92099 -0.00952746 -0.00915575 -2.07857 -0.0755535 -0.487474 3.99699 0.136656 2.03217e-16 0.0 3.88251e-19 -1.43726 -5.97115 0.129661 -0.00126433 5.25796 -0.0454147 0.507805 0.710743 -0.0722727
-6.117 83.7389 37.759 -3.9494 -4.715 3.2439 0.0592793 -1.43449 -0.106488 -0.094762 -0.0558879 -0.0857896 -0.610167 0.79721 0.167441 0.83844 -0.0185735 0.463732 -0.0 0.0 0.0 -0.0 0.0 0.0 -2.12026e-14 2.37396e-14 7.07736e-14 23.1598 5.86004 -4.13763 -6.53255 -3.64084 9.36724 0.0613009 5.49674 0.759734 -3.03899e-10 3.27197e-10 2.13312e-11 -5.24094e-10 5.63798e-10 3.94334e-11 -3.03892e-10 3.27202e-10 2.13205e-11 7.73091 5.47488 0.417314 -3.03899e-10 3.27199e-10 2.13215e-11 2.90554 0.965183 0.102902 -3.03884e-10 3.27199e-10 2.13201e-11 10.2786 0.731801 0.0259123 -3.03897e-10 3.27197e-10 2.1323e-11 2.22167 -0.733487 -0.20892 -2.11516e-14 2.3738e-14 7.06334e-14 -24.1566 6.43734 3.41714 6.47958 -3.59694 -9.31124 -0.00117943 0.761811 -0.107031 -2.14833e-10 -5.70692e-11 1.444e-10 -3.70948e-10 -9.80633e-11 2.5031e-10 -2.14838e-10 -5.70645e-11 1.44415e-10 -7.73091 5.47488 -0.417314 -2.14833e-10 -5.70679e-11 1.44405e-10 -2.90554 0.965183 -0.102902 -2.14841e-10 -5.70679e-11 1.44407e-10 -10.2786 0.731801 -0.0259123 -2.14831e-10 -5.7067e-11 1.44403e-10 -2.22167 -0.733487 0.20892 -2.03217e-16 0.0 -3.88251e-19 -6.25492 -2.17017 -0.00994861 -0.00628415 -1.7256 -0.054469 -0.224914 3.89044 0.0965704 2.03217e-16 0.0 3.88251e-19 1.81115 -7.14514 -1.99186 -0.0206913 9.88968 -0.184805 0.884661 -5.42082 4.68251
-6.12043 83.7381 37.7559 -3.9609 -4.725 3.2541 1.43158 -2.94605 -0.183007 0.167339 -0.113812 -0.113727 -1.26021 1.64024 0.344541 1.72463 -0.0381233 0.95394 -0.0 0.0 0.0 -0.0 0.0 0.0 -2.64777e-14 5.2021e-14 1.48144e-13 48.5781 11.9531 -8.65715 -12.1601 -7.16512 19.3883 -0.0352328 11.3034 1.58634 -4.04236e-10 6.49776e-10 6.58174e-11 -6.96195e-10 1.11939e-09 1.18584e-10 -4.04231e-10 6.4978e-10 6.58053e-11 7.73091 5.47488 0.417314 -4.04238e-10 6.49779e-10 6.58106e-11 2.90554 0.965183 0.102902 -4.04224e-10 6.49778e-10 6.58078e-11 10.2786 0.731801 0.0259123 -4.04237e-10 6.49778e-10 6.58102e-11 2.22167 -0.733487 -0.20892 -2.64815e-14 5.20202e-14 1.47961e-13 -50.5473 13.1649 7.17443 12.0734 -7.08202 -19.2689 0.000670099 1.56769 -0.220318 -2.20693e-10 -8.47758e-11 3.23418e-10 -3.80945e-10 -1.45325e-10 5.60477e-10 -2.20698e-10 -8.47701e-11 3.23435e-10 -7.73091 5.47488 -0.417314 -2.20693e-10 -8.47737e-11 3.2342e-10 -2.90554 0.965183 -0.102902 -2.20701e-10 -8.47733e-11 3.23424e-10 -10.2786 0.731801 -0.0259123 -2.2069e-10 -8.47718e-11 3.23417e-10 -2.22167 -0.733487 0.20892 -2.03217e-16 0.0 -3.88251e-19 -12.3876 -2.43358 -0.010393 -0.00353078 -1.35243 -0.0321887 0.0525321 3.77777 0.0541989 2.03217e-16 0.0 3.88251e-19 5.15112 -8.37339 -4.24778 -0.0159226 14.7862 -0.338029 2.40559 -11.7676 9.87644
-6.12482 83.7417 37.638 -3.9609 -4.5395 3.5332 2.64999 -4.29549 -0.251914 0.400554 -0.162678 -0.138715 -1.84449 2.39155 0.502713 2.51622 -0.055706 1.3912 -0.0 0.0 0.0 -0.0 0.0 0.0 -2.45421e-14 7.13244e-14 2.12122e-13 72.0967 17.2051 -12.9361 -16.1427 -9.75637 28.4933 -0.269223 16.4784 2.36595 -5.35911e-10 9.82654e-10 6.33511e-11 -9.23309e-10 1.69324e-09 1.17216e-10 -5.35907e-10 9.82658e-10 6.33381e-11 7.73091 5.47488 0.417314 -5.35914e-10 9.82658e-10 6.33475e-11 2.90554 0.965183 0.102902 -5.35901e-10 9.82657e-10 6.33432e-11 10.2786 0.731801 0.0259123 -5.35913e-10 9.82658e-10 6.33455e-11 2.22167 -0.733487 -0.20892 -2.45943e-14 7.13243e-14 2.119e-13 -74.8723 19.0293 10.7824 16.0449 -9.65252 -28.3144 0.00500606 2.2854 -0.321321 -2.68604e-10 -1.70096e-10 4.32622e-10 -4.63708e-10 -2.92262e-10 7.4989e-10 -2.68608e-10 -1.70089e-10 4.32641e-10 -7.73091 5.47488 -0.417314 -2.68603e-10 -1.70093e-10 4.32623e-10 -2.90554 0.965183 -0.102902 -2.68611e-10 -1.70092e-10 4.32626e-10 -10.2786 0.731801 -0.0259123 -2.68599e-10 -1.7009e-10 4.32618e-10 -2.22167 -0.733487 0.20892 -2.03217e-16 0.0 -3.88251e-19 -17.8571 -2.66855 -0.0107919 -0.00132033 -1.01964 -0.0123272 0.29976 3.67735 0.0164303 2.03217e-16 0.0 3.88251e-19 8.0446 -9.45003 -6.27252 0.0118396 19.1526 -0.482434 4.77495 -17.1845 14.804
-6.11518 83.7675 37.2893 -3.8444 -3.9521 4.3527 3.4913 -5.23965 -0.301234 0.561664 -0.188901 -0.156329 -2.25447 2.91363 0.613193 3.07068 -0.0683846 1.69607 -0.0 0.0 0.0 -0.0 0.0 0.0 -4.58006e-15 6.81828e-14 2.42617e-13 88.9884 20.7118 -16.1143 -18.4046 -11.1284 34.9343 -0.521796 20.0856 2.94576 -7.45928e-10 1.34128e-09 -5.64962e-11 -1.28796e-09 2.31272e-09 -8.54512e-11 -7.45925e-10 1.34129e-09 -5.65089e-11 7.73091 5.47488 0.417314 -7.45931e-10 1.34128e-09 -5.64962e-11 2.90554 0.965183 0.102902 -7.45919e-10 1.34128e-09 -5.65018e-11 10.2786 0.731801 0.0259123 -7.45932e-10 1.34129e-09 -5.64994e-11 2.22167 -0.733487 -0.20892 -4.66373e-15 6.81831e-14 2.42368e-13 -92.3022 23.0046 13.512 18.3087 -11.0224 -34.7163 0.0095066 2.78273 -0.391398 -4.2164e-10 -3.99449e-10 3.6729e-10 -7.28383e-10 -6.8839e-10 6.37417e-10 -4.21644e-10 -3.99442e-10 3.6731e-10 -7.73091 5.47488 -0.417314 -4.21638e-10 -3.99447e-10 3.6729e-10 -2.90554 0.965183 -0.102902 -4.21646e-10 -3.99446e-10 3.67294e-10 -10.2786 0.731801 -0.0259123 -4.21634e-10 -3.99443e-10 3.67284e-10 -2.22167 -0.733487 0.20892 -2.03217e-16 0.0 -3.88251e-19 -21.6691 -2.83241 -0.0110762 8.28338e-05 -0.787794 0.00150424 0.471759 3.60755 -0.00985215 2.03217e-16 0.0 3.88251e-19 10.0084 -10.1829 -7.69007 0.0454044 22.1945 -0.588531 7.0184 -20.7566 18.4715
-6.10124 83.7664 37.3197 -3.8048 -3.9629 4.3069 3.79432 -5.64277 -0.340823 0.634936 -0.164788 -0.168726 -2.41515 3.10749 0.658014 3.28645 -0.0837507 1.81857 -0.0 0.0 0.0 -0.0 0.0 0.0 4.98127e-14 2.50781e-14 2.22675e-13 95.702 22.0419 -17.3797 -19.1862 -11.5472 37.4645 -0.642821 21.5071 3.18467 -1.13954e-09 1.82673e-09 -4.08881e-10 -1.97399e-09 3.15333e-09 -6.86366e-10 -1.13954e-09 1.82674e-09 -4.08891e-10 7.73091 5.47488 0.417314 -1.13954e-09 1.82673e-09 -4.08875e-10 2.90554 0.965183 0.102902 -1.13953e-09 1.82673e-09 -4.08882e-10 10.2786 0.731801 0.0259123 -1.13954e-09 1.82674e-09 -4.08879e-10 2.22167 -0.733487 -0.20892 4.97234e-14 2.50788e-14 2.22417e-13 -99.2299 24.528 14.6238 19.0967 -11.4478 -37.2423 0.0115634 2.97271 -0.418191 -8.0345e-10 -9.39638e-10 -1.02927e-11 -1.38891e-09 -1.62214e-09 -1.49579e-11 -8.03455e-10 -9.39632e-10 -1.02759e-11 -7.73091 5.47488 -0.417314 -8.03449e-10 -9.39637e-10 -1.02917e-11 -2.90554 0.965183 -0.102902 -8.03455e-10 -9.39636e-10 -1.02905e-11 -10.2786 0.731801 -0.0259123 -8.03444e-10 -9.39634e-10 -1.03007e-11 -2.22167 -0.733487 0.20892 -2.03217e-16 0.0 -3.88251e-19 -23.16 -2.89633 -0.0111923 0.000596328 -0.69608 0.00686903 0.538716 3.57907 -0.0201022 2.03217e-16 0.0 3.88251e-19 10.7583 -10.4887 -8.21823 0.0620996 23.3801 -0.629484 8.00855 -22.0783 19.9275
-6.08946 83.764 37.3312 -3.7734 -3.9492 4.3106 3.71431 -5.65818 -0.372489 0.644865 -0.105608 -0.177154 -2.39679 3.06727 0.655796 3.26052 -0.100585 1.81065 -0.0 0.0 0.0 -0.0 0.0 0.0 1.28361e-13 -4.61649e-14 1.66877e-13 94.9302 21.8955 -17.1791 -19.0961 -11.4976 37.1687 -0.63004 21.3699 3.16119 -1.66077e-09 2.39845e-09 -9.24115e-10 -2.88345e-09 4.1444e-09 -1.5662e-09 -1.66077e-09 2.39845e-09 -9.24121e-10 7.73091 5.47488 0.417314 -1.66077e-09 2.39845e-09 -9.24103e-10 2.90554 0.965183 0.102902 -1.66076e-09 2.39845e-09 -9.24112e-10 10.2786 0.731801 0.0259123 -1.66077e-09 2.39845e-09 -9.24107e-10 2.22167 -0.733487 -0.20892 1.28285e-13 -4.6164e-14 1.66622e-13 -98.4429 24.3617 14.4704 19.0142 -11.4067 -36.9674 0.0112612 2.9431 -0.414015 -1.34478e-09 -1.69665e-09 -6.07679e-10 -2.32546e-09 -2.93092e-09 -1.04739e-09 -1.34479e-09 -1.69665e-09 -6.07667e-10 -7.73091 5.47488 -0.417314 -1.34478e-09 -1.69665e-09 -6.07676e-10 -2.90554 0.965183 -0.102902 -1.34479e-09 -1.69665e-09 -6.07678e-10 -10.2786 0.731801 -0.0259123 -1.34478e-09 -1.69665e-09 -6.07688e-10 -2.22167 -0.733487 0.20892 -2.03217e-16 0.0 -3.88251e-19 -22.9932 -2.88889 -0.0111884 0.000530972 -0.704516 0.00618849 0.530669 3.58017 -0.0189007 2.03217e-16 0.0 3.88251e-19 10.6601 -10.4931 -8.10841 0.060541 23.2401 -0.620854 7.85 -21.9002 19.6869
